<svg class="svg-roi-services svg-roi-services_CAJAREC" xmlns="http://www.w3.org/2000/svg" viewBox="0 0 32 32"><style>.st0{fill:#444}</style><path class="st0" d="M0 0v29h32V0H0zm30 27H2V2h28v25z"/><path class="st0" d="M4 26h25V3H4v3H3v6h1v5H3v6h1v3zM6 5h21v19H6v-1h2v-6H6v-5h2V6H6V5zM5 8h1v2H5V8zm0 11h1v2H5v-2z"/><path class="st0" d="M17 23c4.4 0 8-3.6 8-8s-3.6-8-8-8-8 3.6-8 8 3.6 8 8 8zm0-2c-1.3 0-2.5-.4-3.5-1.1l2.2-2.2c.4.2.8.3 1.3.3s.9-.1 1.3-.3l2.2 2.2c-1 .7-2.2 1.1-3.5 1.1zm-1-6c0-.6.4-1 1-1s1 .4 1 1-.4 1-1 1-1-.4-1-1zm7 0c0 1.3-.4 2.5-1.1 3.5l-2.2-2.2c.2-.4.3-.8.3-1.3s-.1-.9-.3-1.3l2.2-2.2c.7 1 1.1 2.2 1.1 3.5zm-6-6c1.3 0 2.5.4 3.5 1.1l-2.2 2.2c-.4-.2-.8-.3-1.3-.3s-.9.1-1.3.3l-2.2-2.2c1-.7 2.2-1.1 3.5-1.1zm-4.9 2.5l2.2 2.2c-.2.4-.3.8-.3 1.3s.1.9.3 1.3l-2.2 2.2c-.7-1-1.1-2.2-1.1-3.5s.4-2.5 1.1-3.5zM3 30h7v2H3zM22 30h7v2h-7z"/></svg>