<svg class="svg-roi-services svg-roi-services_SERVDES" xmlns="http://www.w3.org/2000/svg" viewBox="0 0 32 32"><style>.st0{fill:#444}</style><path class="st0" d="M17 11h-2v8h8v-2h-6z"/><path class="st0" d="M29 18c0-7.2-5.8-13-13-13S3 10.8 3 18c0 3 1 5.7 2.7 7.9l-4.4 4.4 1.4 1.4L7 27.4c2.3 2.2 5.5 3.6 9 3.6s6.6-1.4 9-3.6l4.3 4.3 1.4-1.4-4.4-4.4C28 23.7 29 21 29 18zM16 29C9.9 29 5 24.1 5 18S9.9 7 16 7s11 4.9 11 11-4.9 11-11 11zM2.6 11.3c2.1-3.8 5.8-6.6 10-7.5l1.9-.4-1.4-1.3C11.6.7 9.8 0 7.8 0 3.6 0 0 3.6 0 7.8c0 1.1.3 2.2.8 3.4l.8 1.8 1-1.7zM7.8 2c.8 0 1.5.2 2.2.4-3.2 1.2-6 3.2-8 6v-.6C2 4.7 4.7 2 7.8 2z"/><path class="st0" d="M24.2 0c-2 0-3.8.7-5.3 2.1l-1.4 1.3 1.9.4c4.3.9 7.9 3.7 10 7.5l1 1.8.8-1.8c.5-1.3.8-2.4.8-3.5C32 3.6 28.4 0 24.2 0zM30 8.4c-2-2.7-4.8-4.8-8-6 .7-.2 1.4-.4 2.2-.4C27.3 2 30 4.7 30 7.8v.6z"/></svg>