<svg class="svg-roi-services svg-roi-services_CIRSANA" xmlns="http://www.w3.org/2000/svg" viewBox="0 0 32 32"><style>.st0{fill:#444}</style><path class="st0" d="M31 14h-3c0-2.2-1.8-4-4-4s-4 1.8-4 4h-2c0-2.2-1.8-4-4-4s-4 1.8-4 4H8c0-2.2-1.8-4-4-4s-4 1.8-4 4v14c0 2.2 1.8 4 4 4s4-1.8 4-4h2c0 2.2 1.8 4 4 4s4-1.8 4-4h2c0 2.2 1.8 4 4 4s4-1.8 4-4V16h3v-2zM4 30c-1.1 0-2-.9-2-2V14c0-1.1.9-2 2-2s2 .9 2 2v14c0 1.1-.9 2-2 2zm4-4V16h2v10H8zm6 4c-1.1 0-2-.9-2-2V14c0-1.1.9-2 2-2s2 .9 2 2v14c0 1.1-.9 2-2 2zm4-4V16h2v10h-2zm8 2c0 1.1-.9 2-2 2s-2-.9-2-2V14c0-1.1.9-2 2-2s2 .9 2 2v14zM13 0h2v7h-2zM6 3h2v5H6zM20 3h2v5h-2z"/></svg>