<svg class="svg-roi-services svg-roi-services_SECADOR" xmlns="http://www.w3.org/2000/svg" viewBox="0 0 32 32"><style>.st0{fill:#444}</style><path class="st0" d="M27.1 1.2L14.8 5.3c-1.4-.8-3-1.2-4.6-1.1C5.6 4.4 2 8.4 2.3 13c.1 2.8 1.7 5.4 4.1 6.8l.4 8.1 2.9-.1.2 3.9 2-.1-.2-3.9 3.4-.2-.4-7.7c2.3-1.3 3.9-3.7 4.2-6.4l11-3.7-2.8-8.5zM17 11.9v.7c0 2.4-1.5 4.6-3.7 5.7l-.6.3.3 7-1.4.1-2 .1h-.9l-.4-7.3-.5-.3c-2.1-1-3.4-3.1-3.6-5.4-.2-3.5 2.5-6.5 6-6.7h.3c1.2 0 2.4.4 3.5 1l.4.3 11.4-3.8 1.6 4.7L17 11.9z"/><path class="st0" d="M10.5 9.2c-1.6 0-2.9 1.3-2.9 2.9S8.9 15 10.5 15s2.9-1.3 2.9-2.9-1.3-2.9-2.9-2.9zm0 3.8c-.5 0-.9-.4-.9-.9s.4-.9.9-.9.9.4.9.9-.4.9-.9.9z"/></svg>